<?xml version="1.0" encoding="utf-8"?>
<!-- Generator: Adobe Illustrator 17.1.0, SVG Export Plug-In . SVG Version: 6.00 Build 0)  -->
<!DOCTYPE svg PUBLIC "-//W3C//DTD SVG 1.1//EN" "http://www.w3.org/Graphics/SVG/1.1/DTD/svg11.dtd">
<svg version="1.1" id="Layer_1" xmlns="http://www.w3.org/2000/svg" xmlns:xlink="http://www.w3.org/1999/xlink" x="0px" y="0px"
	 viewBox="0 0 128 128" enable-background="new 0 0 128 128" xml:space="preserve">
<g>
	<path fill="#3E4E5C" d="M64,0c35.3,0,64,28.7,64,64c0,35.3-28.7,64-64,64S0,99.3,0,64C0,28.7,28.7,0,64,0z"/>
	<g>
		<defs>
			<circle id="SVGID_3_" cx="64" cy="64" r="64"/>
		</defs>
		<clipPath id="SVGID_1_">
			<use xlink:href="#SVGID_3_"  overflow="visible"/>
		</clipPath>
		<polygon clip-path="url(#SVGID_1_)" fill="#5D5E61" points="-4,108 38,57 80,87 118,33 137,0 -4,0 		"/>
	</g>
	<path fill="#ECF0F0" d="M81.6,88.5l39.6-53.5l-4.5-2.4L78.3,84.4L40.9,59.3l-0.4,0.3l0.4-0.6l-3.5-3.3L9,91.7l3.5,3.3L38,62.8
		l42.3,28.9L81.6,88.5L81.6,88.5z"/>
	<path fill="#F9A224" d="M38,49.6c-5.2,0-9.4,4.2-9.4,9.4c0,5.2,4.2,9.4,9.4,9.4s9.4-4.2,9.4-9.4C47.4,53.8,43.2,49.6,38,49.6z"/>
	<path fill="#F9A224" d="M15.8,79.3c-5.2,0-9.4,4.2-9.4,9.4c0,5.2,4.2,9.4,9.4,9.4s9.4-4.2,9.4-9.4C25.2,83.5,21,79.3,15.8,79.3z"/>
	<path fill="#F9A224" d="M78.5,77.1c-5.2,0-9.4,4.2-9.4,9.4c0,5.2,4.2,9.4,9.4,9.4s9.4-4.2,9.4-9.4C87.9,81.3,83.7,77.1,78.5,77.1z"
		/>
	<path fill="#F9A224" d="M112.5,28.6c-5.2,0-9.4,4.2-9.4,9.4c0,5.2,4.2,9.4,9.4,9.4s9.4-4.2,9.4-9.4
		C121.9,32.8,117.7,28.6,112.5,28.6z"/>
</g>
</svg>
